<?xml version="1.0" encoding="UTF-8" standalone="no"?>
<!-- Created with Inkscape (http://www.inkscape.org/) -->

<svg
   version="1.1"
   id="svg1"
   width="867.45178"
   height="917.53717"
   viewBox="0 0 867.45179 917.53717"
   xmlns="http://www.w3.org/2000/svg"
   xmlns:svg="http://www.w3.org/2000/svg">
  <defs
     id="defs1" />
  <path
     style="fill:#ffffff"
     d="M 245.57739,915.97266 C 157.93883,908.19015 80.161237,870.6226 37.322063,815.38273 -31.164193,727.07169 -1.4512032,578.87572 94.236135,531.51912 c 6.398585,-3.16672 11.365365,-6.02611 11.037275,-6.3542 -0.32808,-0.32808 1.25142,-0.46858 3.51001,-0.31222 2.25858,0.15637 4.50181,0.78959 4.98494,1.40717 0.48313,0.61757 0.65378,1.00823 0.37923,0.86812 -0.74109,-0.3782 -12.92677,24.88959 -18.030215,37.38683 -38.104174,93.30878 -14.465818,205.5321 52.484955,249.17287 7.19277,4.68849 9.73055,5.43445 7.01018,2.06059 -11.85195,-14.699 -22.30801,-68.59909 -22.31505,-115.03222 -0.0173,-114.40234 51.6307,-209.48118 148.63821,-273.62787 54.14534,-35.80387 58.41585,-39.01638 76.9377,-57.87679 25.5399,-26.00675 34.95989,-43.47821 48.3333,-89.64489 11.39661,-39.34251 19.77424,-60.32394 34.67833,-86.85044 10.85119,-19.31309 12.1702,-22.79993 14.80743,-39.1438 8.62082,-53.42629 32.86339,-102.231987 66.49586,-133.871 34,-31.984763 45.84727,-26.1262179 51.93359,25.68147 7.06269,60.11867 8.6525,63.69338 29.98282,67.41652 58.34812,10.18448 103.01551,41.2244 117.5631,81.69606 12.36354,34.39556 35.31708,45.28381 126.95609,60.2229 30.30746,4.94076 19.95653,67.7667 -15.8354,96.11443 -2.85935,2.26465 -4.80326,4.75757 -4.3198,5.53982 0.49644,0.80328 0.2536,1.03576 -0.55797,0.53418 -0.79034,-0.48845 -3.43305,0.28942 -5.87268,1.72862 -17.87092,10.54248 -35.45077,13.55488 -85.76903,14.697 -46.87579,1.06399 -50.26303,1.7102 -60.10548,11.46678 -18.15943,18.001 -20.36801,50.87289 -6.22116,92.59397 11.68259,34.4536 17.81036,75.31604 15.6547,104.39181 -1.77963,24.00371 -4.79186,57.71118 -5.3259,59.5979 -4.11863,14.55057 -8.13604,96.35571 -6.16426,125.52071 3.57422,52.86696 14.4846,71.64214 47.99501,82.59249 33.45342,10.93173 51.77272,33.9266 45.52193,57.14029 -3.01594,11.20033 -1.8061,10.91508 -44.4131,10.47143 -52.57743,-0.54746 -66.44894,-8.34392 -73.05106,-41.05826 -1.24985,-6.19315 -1.75612,-207.70452 -0.59459,-236.66666 4.90585,-122.32536 -5.02316,-144.53643 -66.91639,-149.69115 -11.71303,-0.97551 -11.71303,-0.97551 -12.51204,-14.97551 -2.38727,-41.8288 -33.31399,-40.46633 -36.64096,1.61421 -0.91824,11.61422 -0.91824,11.61422 -62.40581,11.36758 -33.81816,-0.13565 -66.13756,0.23914 -71.82089,0.83288 -10.33334,1.07951 -10.33334,1.07951 -10.33334,-6.85226 0,-50.0105 -37.1423,-49.17049 -40.3545,0.91266 -0.4589,7.15489 -0.62209,7.24373 -18.31217,9.9688 -30.37559,4.6792 -48.82824,20.24558 -54.99301,46.39126 -2.48637,10.54503 -2.40049,260.50678 0.0941,273.76486 3.04839,16.20166 11.51318,27.53621 25.52469,34.17816 12.86336,6.09768 17.62034,6.69011 62.70761,7.80958 56.91417,1.41312 65.07214,3.56062 83.31832,21.93273 13.48891,13.582 19.96352,29.456 15.45239,37.88511 -1.61246,3.01292 -186.34765,4.24367 -217.79566,1.45102 z M 678.41486,256.58508 c 14.21439,-9.65893 15.56171,-34.40482 2.49922,-45.90288 -17.32576,-15.25074 -40.43623,-3.0743 -40.66701,21.42663 -0.20451,21.71117 21.63058,35.71358 38.16779,24.47625 z M 347.86731,824.14255 c -33.22255,-11.92408 -33.87298,-14.68915 -33.89516,-144.09316 -0.0277,-161.8594 -6.90945,-155.11825 157.56072,-154.34242 111.90663,0.52788 111.66225,0.49125 129.3365,19.38645 15.62031,16.69937 15.24239,13.0156 14.39964,140.36062 -1.00164,151.35461 10.63478,140.47632 -150.66667,140.85059 -103.2268,0.23951 -110.41471,0.10638 -116.73503,-2.16208 z m 198.02355,-71.40331 c 11.80141,-6.10275 6.23851,-15.97289 -19.19151,-34.05108 -46.94104,-33.37036 -50.1509,-39.4515 -50.4939,-95.66159 -0.30679,-50.27684 -0.59992,-52.01565 -9.24659,-54.84956 -14.62275,-4.79256 -17.37863,1.08983 -17.21326,36.74148 0.18421,39.71337 -0.94892,51.07014 -6.21933,62.33273 -13.09272,27.97851 -0.76757,47.95286 25.66523,41.59348 9.41084,-2.26413 9.41084,-2.26413 12.56309,1.47028 21.38552,25.335 41.14084,39.94466 59.91397,44.30821 0.21975,0.0511 2.11978,-0.7967 4.2223,-1.88395 z M 672.76108,112.68349 c -10.03037,-4.66925 -28.92851,-10.5483 -45.79466,-14.24631 -15.11372,-3.313784 -12.20998,-11.265574 24.43107,-66.903556 4.29186,-6.517014 7.42252,-12.517014 6.95702,-13.333333 -0.4655,-0.816319 -0.36781,-1.05186 0.21708,-0.523424 0.5849,0.528436 5.54188,-3.221564 11.01551,-8.3333339 21.68363,-20.2501211 27.55087,-7.4048614 22.24703,48.7058739 -1.49213,15.785613 -9.89646,58.045133 -11.53212,57.986973 -0.20148,-0.007 -3.5949,-1.51596 -7.54093,-3.35289 z"
     id="path2" />
</svg>
